<svg width="1293" height="374" viewBox="0 0 1293 374" fill="none" xmlns="http://www.w3.org/2000/svg">
<path d="M184.458 79.275C204.988 79.2751 224.31 84.4494 241.191 93.5631L233.562 104.203C218.865 96.5644 202.166 92.2458 184.458 92.2457C125.567 92.2457 77.8264 139.986 77.8262 198.875C77.8262 257.766 125.567 305.506 184.458 305.506C243.347 305.506 291.087 257.766 291.087 198.875C291.087 165.589 275.833 135.866 251.937 116.312L254.427 101.87C284.492 123.593 304.057 158.949 304.058 198.875C304.058 264.929 250.511 318.477 184.458 318.477C118.403 318.477 64.8555 264.93 64.8555 198.875C64.8557 132.822 118.403 79.275 184.458 79.275Z" fill="white"/>
<path fill-rule="evenodd" clip-rule="evenodd" d="M265.704 57.5369C268.677 59.4079 270.222 62.8913 269.615 66.3509L241.336 227.417C240.774 230.615 238.469 233.229 235.367 234.185C232.265 235.142 228.888 234.281 226.623 231.955L182.677 186.822L124.549 169.028C121.404 168.065 119.077 165.401 118.546 162.155C118.015 158.908 119.373 155.642 122.048 153.727L256.065 57.8232C258.922 55.7791 262.731 55.666 265.704 57.5369ZM146.339 157.611L189.858 170.934C191.248 171.359 192.508 172.128 193.522 173.17L227.224 207.781L248.921 84.2026L146.339 157.611Z" fill="white"/>
<path fill-rule="evenodd" clip-rule="evenodd" d="M155.612 185.114C158.457 187.29 159 191.361 156.824 194.206L124.856 236.01C122.681 238.855 118.61 239.398 115.765 237.222C112.92 235.046 112.377 230.976 114.553 228.13L146.52 186.327C148.696 183.481 152.766 182.939 155.612 185.114ZM170.14 211.008C173.068 213.071 173.77 217.117 171.707 220.045L131.155 277.609C129.092 280.537 125.046 281.239 122.118 279.176C119.19 277.113 118.488 273.067 120.551 270.139L161.103 212.575C163.166 209.647 167.212 208.945 170.14 211.008ZM201.17 214.423C204.143 216.42 204.934 220.45 202.936 223.423L171.014 270.934C169.017 273.907 164.987 274.698 162.014 272.7C159.041 270.703 158.25 266.673 160.248 263.7L192.17 216.189C194.167 213.216 198.197 212.425 201.17 214.423Z" fill="white"/>
<path fill-rule="evenodd" clip-rule="evenodd" d="M184.868 178.635L261.099 66.0853L128.31 162.242L184.868 178.635" fill="white"/>
<g clip-path="url(#clip0_5757_2001)">
<path fill-rule="evenodd" clip-rule="evenodd" d="M994.184 268.531C1005.59 264.523 1015.31 258.463 1023.32 250.339C1031.34 242.22 1037.56 232.097 1041.98 219.966C1046.4 207.839 1048.61 193.754 1048.61 177.72V55.3003H1010.99V179.57C1010.99 199.512 1006.13 214.52 996.415 224.59C986.697 234.665 973.361 239.701 956.411 239.701C939.248 239.701 925.81 234.458 916.097 223.973C906.379 213.489 901.521 198.178 901.521 178.029V55.3003H863.902V179.57C863.902 195.194 866.06 208.918 870.377 220.736C874.695 232.56 880.861 242.476 888.879 250.494C896.897 258.509 906.557 264.523 917.865 268.531C929.169 272.541 941.811 274.545 955.794 274.545C969.978 274.545 982.775 272.541 994.184 268.531ZM1137.72 238.465C1131.96 235.999 1126.93 232.506 1122.61 227.981C1118.29 223.462 1114.85 217.961 1112.28 211.485C1109.71 205.009 1108.42 197.869 1108.42 190.054V189.437C1108.42 181.626 1109.71 174.533 1112.28 168.161C1114.85 161.79 1118.29 156.289 1122.61 151.662C1126.93 147.038 1131.96 143.49 1137.72 141.024C1143.47 138.558 1149.54 137.324 1155.91 137.324C1162.28 137.324 1168.3 138.558 1173.95 141.024C1179.6 143.49 1184.54 146.989 1188.75 151.508C1192.96 156.034 1196.31 161.53 1198.78 168.006C1201.24 174.481 1202.47 181.626 1202.47 189.437V190.054C1202.47 198.072 1201.24 205.317 1198.78 211.793C1196.31 218.27 1192.96 223.718 1188.75 228.135C1184.54 232.559 1179.6 235.999 1173.95 238.465C1168.3 240.934 1162.28 242.167 1155.91 242.167C1149.54 242.167 1143.47 240.934 1137.72 238.465ZM1071.74 320.49H1109.36V245.866C1115.1 253.475 1122.38 260.158 1131.2 265.91C1140.02 271.664 1151.09 274.545 1164.42 274.545C1174.06 274.545 1183.45 272.695 1192.57 268.993C1201.7 265.294 1209.8 259.85 1216.87 252.651C1223.95 245.457 1229.59 236.615 1233.8 226.131C1238 215.647 1240.1 203.621 1240.1 190.054V189.437C1240.1 175.87 1237.95 163.842 1233.64 153.358C1229.33 142.874 1223.64 134.039 1216.57 126.84C1209.49 119.646 1201.44 114.198 1192.42 110.496C1183.39 106.796 1174.06 104.946 1164.42 104.946C1151.3 104.946 1140.32 107.875 1131.51 113.735C1122.69 119.593 1115.3 126.84 1109.36 135.474V108.338H1071.74V320.49V320.49Z" fill="white"/>
<path fill-rule="evenodd" clip-rule="evenodd" d="M442.146 269.951C451.34 267.15 459.217 263.043 465.768 257.637C472.32 252.229 477.435 245.622 481.11 237.811C484.786 230.003 486.624 221.194 486.624 211.379V210.778C486.624 202.172 485.164 194.61 482.255 188.101C479.344 181.596 475.079 175.89 469.457 170.979C463.835 166.075 456.762 161.922 448.228 158.515C439.697 155.113 429.907 152.01 418.868 149.203C408.83 146.8 400.546 144.501 394.021 142.295C387.498 140.095 382.379 137.743 378.666 135.237C374.949 132.735 372.392 129.934 370.987 126.827C369.58 123.724 368.88 120.172 368.88 116.162V115.563C368.88 108.556 371.883 102.648 377.891 97.8405C383.898 93.0355 392.31 90.6329 403.122 90.6329C412.735 90.6329 422.243 92.4849 431.657 96.1889C441.067 99.8972 450.58 105.251 460.192 112.258L480.016 84.3239C469.204 75.7158 457.638 69.1557 445.324 64.6502C433.01 60.1447 419.141 57.8919 403.724 57.8919C393.31 57.8919 383.706 59.3937 374.916 62.3974C366.12 65.4011 358.598 69.5587 352.342 74.8636C346.085 80.1707 341.173 86.5767 337.596 94.0859C334.02 101.595 332.236 109.855 332.236 118.866V119.467C332.236 129.08 333.789 137.291 336.9 144.098C340.012 150.907 344.533 156.666 350.454 161.369C356.378 166.075 363.705 170.079 372.438 173.384C381.167 176.687 391.154 179.645 402.4 182.243C412.237 184.45 420.215 186.652 426.339 188.852C432.459 191.058 437.279 193.461 440.794 196.061C444.306 198.667 446.718 201.421 448.024 204.322C449.327 207.226 449.979 210.582 449.979 214.383V214.984C449.979 222.995 446.623 229.401 439.918 234.206C433.206 239.014 424.148 241.416 412.735 241.416C399.518 241.416 387.701 239.064 377.292 234.358C366.876 229.655 356.565 222.896 346.352 214.084L324.126 240.516C336.742 251.929 350.454 260.392 365.277 265.897C380.093 271.402 395.613 274.157 411.834 274.157C422.842 274.157 432.948 272.752 442.146 269.951ZM501.941 271.153H538.586V225.796L560.814 202.67L608.571 271.153H650.623L585.443 177.139L648.52 112.559H604.365L538.586 182.844V51.8844H501.941V271.153ZM666.843 271.154H703.487V112.56H666.843V271.154ZM665.336 88.2272H704.683V53.6848H665.336V88.2272ZM734.721 271.153H771.367V51.8844H734.721V271.153ZM802.604 271.153H839.25V51.8844H802.604V271.153Z" fill="white"/>
</g>
<defs>
<clipPath id="clip0_5757_2001">
<rect width="916.766" height="270.231" fill="white" transform="translate(324.126 51.8844)"/>
</clipPath>
</defs>
</svg>