<svg width="1293" height="374" viewBox="0 0 1293 374" fill="none" xmlns="http://www.w3.org/2000/svg">
<path fill-rule="evenodd" clip-rule="evenodd" d="M185.92 312.753C248.005 312.753 298.335 262.422 298.335 200.335C298.335 138.251 248.005 87.9201 185.92 87.9201C123.833 87.9201 73.5029 138.251 73.5029 200.335C73.5029 262.422 123.833 312.753 185.92 312.753Z" fill="#51BFFC"/>
<path fill-rule="evenodd" clip-rule="evenodd" d="M267.866 59.6988C270.839 61.5698 272.384 65.0531 271.777 68.5127L243.498 229.579C242.936 232.777 240.631 235.39 237.529 236.347C234.427 237.304 231.05 236.442 228.785 234.116L184.839 188.984L126.711 171.19C123.566 170.227 121.239 167.563 120.708 164.316C120.178 161.07 121.535 157.803 124.21 155.889L258.227 59.9851C261.084 57.9409 264.893 57.8278 267.866 59.6988ZM148.501 159.773L192.02 173.095C193.41 173.521 194.67 174.29 195.684 175.331L229.386 209.943L251.083 86.3644L148.501 159.773Z" fill="#044150"/>
<path fill-rule="evenodd" clip-rule="evenodd" d="M157.773 187.276C160.618 189.452 161.161 193.523 158.985 196.368L127.018 238.171C124.842 241.017 120.771 241.56 117.926 239.384C115.081 237.208 114.538 233.138 116.714 230.292L148.681 188.489C150.857 185.643 154.927 185.101 157.773 187.276ZM172.301 213.17C175.229 215.233 175.931 219.279 173.868 222.207L133.316 279.771C131.253 282.699 127.207 283.4 124.279 281.338C121.351 279.275 120.649 275.229 122.712 272.3L163.264 214.737C165.327 211.809 169.373 211.107 172.301 213.17ZM203.331 216.584C206.304 218.582 207.095 222.612 205.097 225.585L173.175 273.096C171.178 276.069 167.148 276.86 164.175 274.862C161.202 272.864 160.411 268.835 162.409 265.862L194.331 218.351C196.328 215.378 200.358 214.587 203.331 216.584Z" fill="#044150"/>
<path fill-rule="evenodd" clip-rule="evenodd" d="M187.029 180.797L263.26 68.2471L130.471 164.404L187.029 180.797Z" fill="#044150"/>
<g clip-path="url(#clip0_4966_2190)">
<path fill-rule="evenodd" clip-rule="evenodd" d="M994.786 268.531C1006.2 264.523 1015.91 258.463 1023.93 250.339C1031.94 242.22 1038.16 232.097 1042.58 219.965C1047 207.838 1049.21 193.754 1049.21 177.72V55.3H1011.59V179.57C1011.59 199.512 1006.73 214.519 997.017 224.59C987.299 234.664 973.963 239.701 957.014 239.701C939.85 239.701 926.413 234.457 916.699 223.973C906.981 213.489 902.124 198.178 902.124 178.028V55.3H864.505V179.57C864.505 195.194 866.663 208.917 870.979 220.736C875.297 232.559 881.463 242.475 889.481 250.493C897.499 258.509 907.16 264.523 918.468 268.531C929.771 272.541 942.414 274.545 956.397 274.545C970.581 274.545 983.377 272.541 994.786 268.531ZM1138.32 238.465C1132.57 235.999 1127.53 232.506 1123.21 227.981C1118.89 223.462 1115.45 217.961 1112.88 211.485C1110.31 205.008 1109.03 197.869 1109.03 190.054V189.437C1109.03 181.626 1110.31 174.533 1112.88 168.16C1115.45 161.79 1118.89 156.289 1123.21 151.662C1127.53 147.038 1132.57 143.49 1138.32 141.024C1144.08 138.557 1150.14 137.324 1156.52 137.324C1162.88 137.324 1168.9 138.557 1174.56 141.024C1180.21 143.49 1185.14 146.989 1189.36 151.508C1193.57 156.033 1196.91 161.53 1199.38 168.006C1201.84 174.48 1203.08 181.626 1203.08 189.437V190.054C1203.08 198.072 1201.84 205.317 1199.38 211.793C1196.91 218.269 1193.57 223.717 1189.36 228.135C1185.14 232.559 1180.21 235.999 1174.56 238.465C1168.9 240.934 1162.88 242.167 1156.52 242.167C1150.14 242.167 1144.08 240.934 1138.32 238.465ZM1072.34 320.489H1109.96V245.866C1115.7 253.474 1122.98 260.158 1131.8 265.91C1140.62 271.664 1151.7 274.544 1165.03 274.544C1174.66 274.544 1184.05 272.695 1193.17 268.993C1202.3 265.293 1210.4 259.85 1217.48 252.651C1224.55 245.457 1230.19 236.615 1234.4 226.131C1238.6 215.647 1240.7 203.621 1240.7 190.054V189.437C1240.7 175.87 1238.55 163.842 1234.24 153.357C1229.94 142.873 1224.24 134.038 1217.17 126.84C1210.1 119.645 1202.04 114.197 1193.02 110.496C1184 106.796 1174.66 104.946 1165.03 104.946C1151.9 104.946 1140.93 107.875 1132.11 113.735C1123.29 119.592 1115.9 126.84 1109.96 135.474V108.337H1072.34V320.489Z" fill="#51BFFC"/>
<path fill-rule="evenodd" clip-rule="evenodd" d="M442.146 269.951C451.34 267.15 459.217 263.043 465.768 257.637C472.32 252.229 477.435 245.622 481.11 237.811C484.786 230.003 486.624 221.194 486.624 211.379V210.778C486.624 202.172 485.164 194.61 482.255 188.101C479.344 181.596 475.079 175.89 469.457 170.979C463.835 166.075 456.762 161.922 448.228 158.515C439.697 155.113 429.907 152.01 418.868 149.203C408.83 146.8 400.546 144.501 394.021 142.295C387.498 140.095 382.379 137.743 378.666 135.237C374.949 132.735 372.392 129.934 370.987 126.827C369.58 123.724 368.88 120.172 368.88 116.162V115.563C368.88 108.556 371.883 102.648 377.891 97.8405C383.898 93.0355 392.31 90.6329 403.122 90.6329C412.735 90.6329 422.243 92.4849 431.657 96.1889C441.067 99.8972 450.58 105.251 460.192 112.258L480.016 84.3239C469.204 75.7158 457.638 69.1557 445.324 64.6502C433.01 60.1447 419.141 57.8919 403.724 57.8919C393.31 57.8919 383.706 59.3937 374.916 62.3974C366.12 65.4011 358.598 69.5587 352.342 74.8636C346.085 80.1707 341.173 86.5767 337.596 94.0859C334.02 101.595 332.236 109.855 332.236 118.866V119.467C332.236 129.08 333.789 137.291 336.9 144.098C340.012 150.907 344.533 156.666 350.454 161.369C356.378 166.075 363.705 170.079 372.438 173.384C381.167 176.687 391.154 179.645 402.4 182.243C412.237 184.45 420.215 186.652 426.339 188.852C432.459 191.058 437.279 193.461 440.794 196.061C444.306 198.667 446.718 201.421 448.024 204.322C449.327 207.226 449.979 210.582 449.979 214.383V214.984C449.979 222.995 446.623 229.401 439.918 234.206C433.206 239.014 424.148 241.416 412.735 241.416C399.518 241.416 387.701 239.064 377.292 234.358C366.876 229.655 356.565 222.896 346.352 214.084L324.126 240.516C336.742 251.929 350.454 260.392 365.277 265.897C380.093 271.402 395.613 274.157 411.834 274.157C422.842 274.157 432.948 272.752 442.146 269.951ZM501.941 271.153H538.586V225.796L560.814 202.67L608.571 271.153H650.623L585.443 177.139L648.52 112.559H604.365L538.586 182.844V51.8844H501.941V271.153ZM666.843 271.154H703.487V112.56H666.843V271.154ZM665.336 88.2272H704.683V53.6848H665.336V88.2272ZM734.721 271.153H771.366V51.8844H734.721V271.153ZM802.604 271.153H839.25V51.8844H802.604V271.153Z" fill="#044150"/>
</g>
<defs>
<clipPath id="clip0_4966_2190">
<rect width="916.766" height="270.231" fill="white" transform="translate(324.126 51.8844)"/>
</clipPath>
</defs>
</svg>